<?xml version="1.0" standalone="no"?>
<!DOCTYPE svg PUBLIC "-//W3C//DTD SVG 20010904//EN"
 "http://www.w3.org/TR/2001/REC-SVG-20010904/DTD/svg10.dtd">
<svg version="1.0" xmlns="http://www.w3.org/2000/svg"
 width="260.000000pt" height="260.000000pt" viewBox="0 0 260.000000 260.000000"
 preserveAspectRatio="xMidYMid meet">
<metadata>
Created by potrace 1.11, written by Peter Selinger 2001-2013
</metadata>
<g transform="translate(0.000000,260.000000) scale(0.100000,-0.100000)"
fill="#000000" stroke="none">
<path d="M665 2228 c-85 -31 -76 -53 53 -140 93 -63 104 -73 81 -76 -18 -2
-57 14 -115 48 -128 73 -188 85 -262 55 -47 -20 -79 -50 -103 -97 -10 -20 -28
-39 -38 -43 -11 -3 -23 -15 -26 -25 -8 -24 11 -60 30 -60 8 0 27 -13 41 -29
30 -34 90 -61 137 -61 25 0 49 -13 101 -57 l68 -56 106 -2 c90 -1 108 1 124
17 24 24 23 41 -6 75 -23 26 -29 28 -104 28 l-81 0 -20 46 c-32 69 -68 98
-140 112 -63 12 -76 29 -25 35 72 9 141 -34 179 -109 l25 -49 56 0 c30 0 64 5
75 11 16 8 30 7 60 -5 50 -20 118 -20 146 -1 32 22 39 76 18 130 -19 52 -53
82 -101 91 -27 5 -43 19 -79 70 -62 87 -130 118 -200 92z m293 -275 c-2 -10
-10 -18 -18 -18 -8 0 -16 8 -18 18 -2 12 3 17 18 17 15 0 20 -5 18 -17z"/>
<path d="M1878 2170 c-23 -22 -45 -40 -49 -40 -15 0 -58 -107 -64 -162 -5 -41
-14 -67 -35 -93 -40 -50 -45 -72 -24 -96 16 -18 33 -19 244 -19 211 0 228 1
244 19 22 24 14 53 -24 98 -20 22 -30 47 -35 85 -10 82 -26 126 -54 153 -92
89 -101 95 -131 95 -22 0 -42 -11 -72 -40z"/>
<path d="M392 1748 c-32 -32 3 -77 65 -85 39 -5 123 12 122 25 0 4 -18 22 -41
40 -32 26 -49 32 -87 32 -26 0 -52 -5 -59 -12z"/>
<path d="M1860 1719 c0 -24 59 -69 90 -69 31 0 90 45 90 69 0 7 -32 11 -90 11
-58 0 -90 -4 -90 -11z"/>
<path d="M1300 650 l0 -650 553 0 552 0 50 24 c28 12 65 39 82 59 62 71 63 84
61 677 l-3 535 -647 3 -648 2 0 -650z m678 228 c8 -8 12 -46 12 -105 l0 -93
93 0 c98 0 117 -7 117 -45 0 -38 -19 -45 -117 -45 l-92 0 -3 -96 c-2 -79 -6
-99 -20 -108 -13 -8 -23 -8 -35 0 -15 9 -19 29 -21 108 l-3 96 -92 0 c-98 0
-117 7 -117 45 0 38 19 45 117 45 l93 0 0 93 c0 95 8 117 40 117 9 0 21 -5 28
-12z"/>
<path d="M632 958 c-5 -7 -11 -21 -13 -32 -3 -12 -20 -24 -51 -34 -185 -59
-245 -301 -110 -445 99 -106 276 -110 385 -8 16 14 41 49 55 76 34 66 37 171
6 229 -20 37 -20 41 -5 67 15 26 15 30 -1 45 -14 15 -22 16 -43 6 -23 -10 -32
-9 -63 8 -21 11 -50 24 -67 29 -18 4 -31 15 -34 27 -4 25 -20 44 -36 44 -7 0
-17 -6 -23 -12z m38 -214 c0 -45 5 -70 15 -80 19 -20 19 -39 -1 -58 -20 -20
-38 -20 -58 0 -20 19 -20 35 -1 60 9 12 14 42 15 82 0 48 3 62 15 62 12 0 15
-14 15 -66z"/>
</g>
</svg>
