<svg width="206" height="209" viewBox="0 0 206 209" fill="none" xmlns="http://www.w3.org/2000/svg">
<g filter="url(#filter0_dii)">
<mask id="mask0" mask-type="alpha" maskUnits="userSpaceOnUse" x="4" y="3" width="198" height="198">
<rect x="1" y="28.0186" width="178" height="178" rx="24" transform="rotate(-9 1 28.0186)" fill="#DCDCDF"/>
</mask>
<g mask="url(#mask0)">
<rect x="1" y="28.0186" width="178" height="178" transform="rotate(-9 1 28.0186)" fill="#DCDCDF"/>
<rect opacity="0.5" x="88.9043" y="14.0957" width="89" height="178" transform="rotate(-9 88.9043 14.0957)" fill="white"/>
<rect opacity="0.2" x="1" y="28.0186" width="89" height="89" transform="rotate(-9 1 28.0186)" fill="white"/>
<rect x="206.629" y="175.669" width="91" height="89" transform="rotate(171 206.629 175.669)" fill="#FF9500"/>
</g>
</g>
<path d="M55.9825 82.2788C57.2103 82.0844 58.3453 81.3034 60.6361 80.9406C62.9635 80.572 63.7711 81.0452 65.5304 80.7666C68.0595 80.366 69.3881 79.0284 69.0862 77.1225C68.6102 74.117 65.2649 72.092 59.9503 72.9337C57.183 73.372 56.101 74.013 54.556 74.5771L51.8194 70.4643C49.1368 66.4557 45.1878 64.7705 41.0461 65.4265L38.9386 65.7603C38.0772 65.8967 37.4578 65.5439 37.333 64.7559C37.124 63.4364 38.6844 62.8511 40.4438 62.5725C45.8317 61.7191 50.6528 63.811 54.1599 69.2295L55.7507 71.6827C56.8675 71.2616 58.1146 70.9513 59.4158 70.7453C60.4421 70.5827 61.4433 70.4993 62.5044 70.5566C63.5082 69.7777 64.6499 68.9206 65.8986 68.0277C68.1264 69.0463 70.52 69.9258 73.8371 69.4004C77.9422 68.7503 79.9757 67.0005 79.2413 62.3639C78.3619 56.8111 73.7645 52.6924 67.7516 53.8702L62.6096 48.4477C59.5937 45.2997 56.0212 44.2123 52.8324 44.7174C50.2484 45.1266 46.0949 47.2498 46.417 49.284C46.626 50.6035 49.8322 52.1058 52.2606 53.2053L62.9691 57.9528C62.2885 58.7557 61.7534 59.2913 60.6905 59.4596C59.206 59.6948 57.4124 58.9268 55.3382 58.1658C49.2213 55.6028 45.0386 53.391 39.046 54.3402C33.3648 55.24 29.078 59.1313 27.8169 66.4698C25.9023 66.7166 24.6615 68.1343 24.9431 69.9119C25.2536 71.8728 27.0483 72.8848 29.2783 72.494C32.5753 76.349 36.6126 77.2875 42.0005 76.4342C42.2937 76.3877 42.6053 76.3384 42.9139 76.2707L51.0528 81.1622C53.0376 82.4259 54.553 82.5052 55.9825 82.2788ZM71.4302 62.9811C70.5139 63.1263 69.6194 62.4601 69.4742 61.5438C69.3204 60.5725 69.9624 59.6443 70.9154 59.4933C71.85 59.3453 72.7416 59.9931 72.8867 60.9094C73.0377 61.8624 72.3832 62.8302 71.4302 62.9811ZM42.6291 85.8591C45.7996 85.357 47.7621 84.4637 49.3077 83.073L43.3244 79.4557C43.0891 79.5117 42.7988 79.5765 42.4872 79.6258C41.6626 79.7565 40.0642 79.7466 38.5981 79.9788C36.6922 80.2807 35.6606 81.4773 35.9015 82.9984C36.2643 85.2892 38.9089 86.4483 42.6291 85.8591Z" fill="black"/>
<path d="M68.8623 172.02C78.8867 170.432 85.8274 160.88 84.2397 150.855C83.6243 146.97 81.8275 143.572 79.2681 140.934L80.4866 139.257C80.903 138.684 81.0725 138.094 80.9767 137.489C80.7881 136.298 79.7054 135.511 78.5142 135.7C77.7995 135.813 77.3366 136.093 76.8989 136.651L75.798 138.121C72.7296 136.184 69.1051 135.124 65.3123 135.255L65.0162 133.385C64.8189 132.139 63.6754 131.325 62.4475 131.519C61.2563 131.708 60.3839 132.842 60.5813 134.088L60.8773 135.957C52.0562 138.5 46.2284 147.37 47.6971 156.643C49.2848 166.667 58.8378 173.608 68.8623 172.02ZM66.4879 157.029C64.6736 157.317 62.9937 156.08 62.7063 154.266C62.5234 153.111 62.9744 152.044 63.9328 151.216L62.6702 143.244C62.528 142.346 63.1141 141.539 64.012 141.397C64.91 141.255 65.7167 141.841 65.8589 142.739L67.1245 150.729C68.2861 151.184 69.0447 152.059 69.2305 153.232C69.5207 155.065 68.3022 156.742 66.4879 157.029Z" fill="black"/>
<path d="M127.703 65.4528L155.761 61.0089C157.74 60.6954 158.818 59.3223 158.546 57.5996C158.232 55.6204 156.422 54.2727 154.564 53.1016C153.041 52.1406 152.399 49.631 151.6 46.9584C150.226 41.127 147.522 37.103 142.969 36.2274C141.796 34.046 139.508 32.6426 136.942 33.049C134.395 33.4524 132.633 35.4973 132.211 37.9312C128.151 40.171 126.823 44.8336 127.3 50.8073C127.384 53.593 127.531 56.181 126.379 57.5658C124.974 59.2536 123.687 61.0918 124.001 63.071C124.274 64.7937 125.724 65.7663 127.703 65.4528ZM142.898 70.6544C146.16 70.1378 148.164 67.4909 147.963 64.7987L136.271 66.6506C136.912 69.2731 139.654 71.1682 142.898 70.6544Z" fill="black"/>
<path d="M156.619 157.165C158.232 156.909 159.368 155.294 159.133 153.808L157.314 142.328L168.561 140.547C170.11 140.302 171.253 138.729 170.997 137.116C170.742 135.503 169.169 134.36 167.62 134.605L156.373 136.387L154.558 124.928C154.31 123.358 152.74 122.236 151.127 122.491C149.514 122.747 148.368 124.299 148.617 125.869L150.432 137.328L139.185 139.109C137.679 139.348 136.472 140.931 136.727 142.544C136.983 144.156 138.62 145.289 140.126 145.051L151.373 143.269L153.191 154.749C153.426 156.235 155.006 157.42 156.619 157.165Z" fill="white"/>
<defs>
<filter id="filter0_dii" x="0.455444" y="2.62842" width="204.743" height="205.743" filterUnits="userSpaceOnUse" color-interpolation-filters="sRGB">
<feFlood flood-opacity="0" result="BackgroundImageFix"/>
<feColorMatrix in="SourceAlpha" type="matrix" values="0 0 0 0 0 0 0 0 0 0 0 0 0 0 0 0 0 0 127 0"/>
<feOffset dy="4"/>
<feGaussianBlur stdDeviation="2"/>
<feColorMatrix type="matrix" values="0 0 0 0 0 0 0 0 0 0 0 0 0 0 0 0 0 0 0.1 0"/>
<feBlend mode="normal" in2="BackgroundImageFix" result="effect1_dropShadow"/>
<feBlend mode="normal" in="SourceGraphic" in2="effect1_dropShadow" result="shape"/>
<feColorMatrix in="SourceAlpha" type="matrix" values="0 0 0 0 0 0 0 0 0 0 0 0 0 0 0 0 0 0 127 0" result="hardAlpha"/>
<feOffset dy="-2"/>
<feGaussianBlur stdDeviation="0.5"/>
<feComposite in2="hardAlpha" operator="arithmetic" k2="-1" k3="1"/>
<feColorMatrix type="matrix" values="0 0 0 0 0 0 0 0 0 0 0 0 0 0 0 0 0 0 0.05 0"/>
<feBlend mode="normal" in2="shape" result="effect2_innerShadow"/>
<feColorMatrix in="SourceAlpha" type="matrix" values="0 0 0 0 0 0 0 0 0 0 0 0 0 0 0 0 0 0 127 0" result="hardAlpha"/>
<feOffset dy="2"/>
<feGaussianBlur stdDeviation="1"/>
<feComposite in2="hardAlpha" operator="arithmetic" k2="-1" k3="1"/>
<feColorMatrix type="matrix" values="0 0 0 0 1 0 0 0 0 1 0 0 0 0 1 0 0 0 0.2 0"/>
<feBlend mode="normal" in2="effect2_innerShadow" result="effect3_innerShadow"/>
</filter>
</defs>
</svg>
